<svg width="current" height="current" viewBox="0 0 22 18" fill="currentColor" xmlns="http://www.w3.org/2000/svg">
<g filter="url(#filter0_d_961_16541)">
<path d="M17.3536 8.35355C17.5488 8.15829 17.5488 7.84171 17.3536 7.64645L14.1716 4.46447C13.9763 4.2692 13.6597 4.2692 13.4645 4.46447C13.2692 4.65973 13.2692 4.97631 13.4645 5.17157L16.2929 8L13.4645 10.8284C13.2692 11.0237 13.2692 11.3403 13.4645 11.5355C13.6597 11.7308 13.9763 11.7308 14.1716 11.5355L17.3536 8.35355ZM5 8H4.5V8.5H5V8ZM17 8V7.5H5V8V8.5H17V8ZM5 8H5.5V0H5H4.5V8H5Z" fill="currentColor"/>
</g>
<defs>
<filter id="filter0_d_961_16541" x="0.5" y="0" width="21" height="19.6821" filterUnits="userSpaceOnUse" color-interpolation-filters="sRGB">
<feFlood flood-opacity="0" result="BackgroundImageFix"/>
<feColorMatrix in="SourceAlpha" type="matrix" values="0 0 0 0 0 0 0 0 0 0 0 0 0 0 0 0 0 0 127 0" result="hardAlpha"/>
<feOffset dy="4"/>
<feGaussianBlur stdDeviation="2"/>
<feComposite in2="hardAlpha" operator="out"/>
<feColorMatrix type="matrix" values="0 0 0 0 0 0 0 0 0 0 0 0 0 0 0 0 0 0 0.25 0"/>
<feBlend mode="normal" in2="BackgroundImageFix" result="effect1_dropShadow_961_16541"/>
<feBlend mode="normal" in="SourceGraphic" in2="effect1_dropShadow_961_16541" result="shape"/>
</filter>
</defs>
</svg>
