<svg width="228" height="38" viewBox="0 0 228 38" fill="none" xmlns="http://www.w3.org/2000/svg">
<path d="M100.496 4.59467C100.496 5.12433 100.925 5.55371 101.455 5.55371H104.692C105.222 5.55371 105.651 5.98309 105.651 6.51275V36.5517C105.651 37.0814 105.222 37.5107 104.692 37.5107H98.3633C97.8337 37.5107 97.4043 37.0814 97.4043 36.5517V9.50884C97.4043 8.97918 96.9749 8.5498 96.4453 8.5498H80.8379C80.3083 8.5498 79.8789 8.97918 79.8789 9.50884V36.5517C79.8789 37.0814 79.4495 37.5107 78.9199 37.5107H72.5919C72.0622 37.5107 71.6328 37.0814 71.6328 36.5517V6.51275C71.6328 5.98309 72.0622 5.55371 72.5919 5.55371H75.8271C76.3568 5.55371 76.7861 5.12434 76.7861 4.59467V1.26177C76.7861 0.73211 77.2155 0.302734 77.7452 0.302734H99.5371C100.067 0.302734 100.496 0.73211 100.496 1.26177V4.59467Z" fill="#B3F929"/>
<path d="M28.333 7.59882C28.333 8.12849 27.9036 8.55786 27.374 8.55786H9.70611C9.17645 8.55786 8.74707 8.98724 8.74707 9.5169V15.8439C8.74707 16.3736 9.17645 16.803 9.70611 16.803H27.374C27.9036 16.803 28.333 17.2324 28.333 17.762V24.091C28.333 24.6207 27.9036 25.05 27.374 25.05H9.70611C9.17645 25.05 8.74707 25.4794 8.74707 26.0091V36.5519C8.74707 37.0816 8.31769 37.511 7.78803 37.511H1.45904C0.929376 37.511 0.5 37.0816 0.5 36.5519V6.51299C0.5 5.98333 0.929376 5.55396 1.45904 5.55396H5.72553C6.25519 5.55396 6.68457 5.12458 6.68457 4.59492V1.26983C6.68457 0.740167 7.11395 0.310791 7.64361 0.310791H27.374C27.9036 0.310791 28.333 0.740167 28.333 1.26983V7.59882Z" fill="#B3F929"/>
<path d="M138.752 7.60981C138.752 8.13947 138.323 8.56885 137.793 8.56885H120.011C119.481 8.56885 119.052 8.99822 119.052 9.52789V15.8442C119.052 16.3738 119.481 16.8032 120.011 16.8032H137.793C138.323 16.8032 138.752 17.2326 138.752 17.7623V24.0913C138.752 24.6209 138.323 25.0503 137.793 25.0503H120.011C119.481 25.0503 119.052 25.4797 119.052 26.0093V36.4614C119.052 36.991 118.622 37.4204 118.093 37.4204H111.764C111.234 37.4204 110.805 36.991 110.805 36.4614V6.42242C110.805 5.89275 111.234 5.46338 111.764 5.46338H115.113C115.643 5.46338 116.072 5.034 116.072 4.50434V1.28082C116.072 0.751153 116.502 0.321777 117.031 0.321777H137.793C138.323 0.321777 138.752 0.751153 138.752 1.28081V7.60981Z" fill="#B3F929"/>
<path d="M61.3086 4.59492C61.3086 5.12458 61.738 5.55396 62.2676 5.55396H65.5029C66.0325 5.55396 66.4619 5.98333 66.4619 6.51299V36.5519C66.4619 37.0816 66.0325 37.511 65.5029 37.511H59.1739C58.6442 37.511 58.2148 37.0816 58.2148 36.5519V26.011C58.2148 25.4814 57.7855 25.052 57.2558 25.052H42.6944C42.1647 25.052 41.7354 25.4814 41.7354 26.011V36.5519C41.7354 37.0816 41.306 37.511 40.7763 37.511H34.4473C33.9177 37.511 33.4883 37.0816 33.4883 36.5519V6.51299C33.4883 5.98333 33.9177 5.55396 34.4473 5.55396H37.6699C38.1995 5.55396 38.6289 5.12458 38.6289 4.59492V1.26104C38.6289 0.731378 39.0583 0.302002 39.5879 0.302002H60.3496C60.8792 0.302002 61.3086 0.731378 61.3086 1.26104V4.59492ZM41.7354 15.8459C41.7354 16.3756 42.1647 16.8049 42.6944 16.8049H57.2558C57.7855 16.8049 58.2148 16.3756 58.2148 15.8459V9.50811C58.2148 8.97845 57.7855 8.54907 57.2558 8.54907H42.6944C42.1647 8.54907 41.7354 8.97845 41.7354 9.50811V15.8459Z" fill="#B3F929"/>
<path d="M171.611 4.59467C171.611 5.12433 172.041 5.55371 172.57 5.55371H175.807C176.336 5.55371 176.766 5.98309 176.766 6.51275V36.5517C176.766 37.0814 176.336 37.5107 175.807 37.5107H169.478C168.948 37.5107 168.519 37.0814 168.519 36.5517V26.0108C168.519 25.4811 168.089 25.0518 167.56 25.0518H152.998C152.468 25.0518 152.039 25.4811 152.039 26.0108V36.5517C152.039 37.0814 151.61 37.5107 151.08 37.5107H144.751C144.221 37.5107 143.792 37.0814 143.792 36.5517V6.51275C143.792 5.98309 144.221 5.55371 144.751 5.55371H147.973C148.502 5.55371 148.932 5.12434 148.932 4.59467V1.2608C148.932 0.731134 149.361 0.301758 149.891 0.301758H170.652C171.182 0.301758 171.611 0.731134 171.611 1.2608V4.59467ZM152.039 15.8456C152.039 16.3753 152.468 16.8047 152.998 16.8047H167.56C168.089 16.8047 168.519 16.3753 168.519 15.8456V9.50787C168.519 8.9782 168.089 8.54883 167.56 8.54883H152.998C152.468 8.54883 152.039 8.9782 152.039 9.50787V15.8456Z" fill="#B3F929"/>
<path d="M190.185 28.2324C190.185 28.762 190.614 29.1914 191.144 29.1914H211.903C212.433 29.1914 212.862 29.6208 212.862 30.1504V36.4794C212.862 37.0091 212.433 37.4385 211.903 37.4385H182.897C182.367 37.4385 181.938 37.0091 181.938 36.4794V1.28619C181.938 0.756525 182.367 0.327148 182.897 0.327148H189.226C189.755 0.327148 190.185 0.756524 190.185 1.28619V28.2324Z" fill="#B3F929"/>
<rect x="228.5" width="24.9836" height="8.32787" rx="0.957705" transform="rotate(90 228.5 0)" fill="#B3F929"/>
<rect x="220.122" y="29.2405" width="8.32787" height="8.32787" rx="0.957705" fill="#B3F929"/>
</svg>