<svg width="24" height="25" viewBox="0 0 24 25" fill="none" xmlns="http://www.w3.org/2000/svg">
<path d="M18.3536 14.3697C18.5488 14.1744 18.5488 13.8578 18.3536 13.6626L15.1716 10.4806C14.9763 10.2853 14.6597 10.2853 14.4645 10.4806C14.2692 10.6758 14.2692 10.9924 14.4645 11.1877L17.2929 14.0161L14.4645 16.8445C14.2692 17.0398 14.2692 17.3564 14.4645 17.5516C14.6597 17.7469 14.9763 17.7469 15.1716 17.5516L18.3536 14.3697ZM6 14.0161H5.5V14.5161H6V14.0161ZM18 14.0161V13.5161H6V14.0161V14.5161H18V14.0161ZM6 14.0161H6.5V6.01611H6H5.5V14.0161H6Z" fill="#818288"/>
</svg>
