<svg width="current" height="current" viewBox="0 0 32 32" fill="currentColor" xmlns="http://www.w3.org/2000/svg">
<path d="M15.5937 8.5C17.2506 8.5 18.5937 9.84315 18.5937 11.5C18.5937 12.4971 18.105 13.3774 17.3564 13.9229L18.4414 14.1689C18.6673 14.2201 18.8568 14.3728 18.956 14.582L20.7842 18.4336C20.7959 18.4582 20.8049 18.4837 20.8144 18.5088L23.8232 20.3682C24.2928 20.6585 24.4384 21.2744 24.1484 21.7441C23.8581 22.2139 23.2413 22.3597 22.7715 22.0693L19.3359 19.9463C19.2444 19.8897 19.1657 19.8201 19.0996 19.7422C18.9672 19.6409 18.8583 19.5049 18.7881 19.3398L18.5937 18.8818V20.8584C20.4051 21.7482 23.2482 23.6687 22.458 25.4492C21.6656 27.2335 18.0273 26.3691 15.9805 25.6006L15.5937 25.4492C13.6576 26.2424 9.57458 27.3524 8.72948 25.4492C7.93929 23.6687 10.7824 21.7483 12.5937 20.8584V19.3223L12.5098 19.5205C12.4393 19.6863 12.3294 19.8223 12.1963 19.9238C12.1303 20.0013 12.0522 20.0706 11.9609 20.127L8.52636 22.251C8.05657 22.5413 7.43978 22.3956 7.1494 21.9258C6.85904 21.456 7.00485 20.8402 7.4746 20.5498L10.4814 18.6895C10.4909 18.6644 10.502 18.6398 10.5137 18.6152L12.3408 14.7627C12.4401 14.5534 12.6305 14.4017 12.8564 14.3506L13.9892 14.0928C14.0123 14.0855 14.0361 14.0807 14.0596 14.0742C13.1828 13.5506 12.5937 12.5954 12.5937 11.5C12.5937 9.84317 13.9369 8.50005 15.5937 8.5Z" fill="currentColor"/>
<path d="M9.59375 12.9238L11.5482 12.4995" stroke="currentColor" stroke-width="current" stroke-linecap="round"/>
<path d="M9.61328 9.42578L11.5241 10.0163" stroke="currentColor" stroke-width="current" stroke-linecap="round"/>
<path d="M11.5938 6.5L12.8545 7.78858" stroke="currentColor" stroke-width="current" stroke-linecap="round"/>
<path d="M21.2886 12.5L19.3341 12.0757" stroke="currentColor" stroke-width="current" stroke-linecap="round"/>
<path d="M21.5752 9.42578L19.6644 10.0163" stroke="currentColor" stroke-width="current" stroke-linecap="round"/>
<path d="M19.5947 6.5L18.334 7.78858" stroke="currentColor" stroke-width="current" stroke-linecap="round"/>
<path d="M15.5938 7L15.5937 5" stroke="currentColor" stroke-width="current" stroke-linecap="round"/>
</svg>
