<svg width="current" height="current" viewBox="0 0 25 24" fill="currentColor" xmlns="http://www.w3.org/2000/svg">
<path d="M20 8.25049H13.25V7.40674C13.8937 7.23953 14.4638 6.86352 14.871 6.33761C15.2782 5.8117 15.4994 5.16559 15.5 4.50049C15.5 1.87549 13.0212 0.196425 12.9163 0.126112C12.793 0.043883 12.6482 0 12.5 0C12.3518 0 12.207 0.043883 12.0837 0.126112C11.9788 0.196425 9.5 1.87549 9.5 4.50049C9.50063 5.16559 9.72185 5.8117 10.129 6.33761C10.5362 6.86352 11.1063 7.23953 11.75 7.40674V8.25049H5C4.40326 8.25049 3.83097 8.48754 3.40901 8.9095C2.98705 9.33145 2.75 9.90375 2.75 10.5005V12.6877C2.75077 13.5059 3.01361 14.3023 3.5 14.9602V18.7505C3.5 19.3472 3.73705 19.9195 4.15901 20.3415C4.58097 20.7634 5.15326 21.0005 5.75 21.0005H19.25C19.8467 21.0005 20.419 20.7634 20.841 20.3415C21.2629 19.9195 21.5 19.3472 21.5 18.7505V14.9602C21.9864 14.3023 22.2492 13.5059 22.25 12.6877V10.5005C22.25 9.90375 22.0129 9.33145 21.591 8.9095C21.169 8.48754 20.5967 8.25049 20 8.25049ZM11 4.50049C11 3.2283 11.9375 2.20736 12.5 1.70767C13.0625 2.20736 14 3.2283 14 4.50049C14 4.89831 13.842 5.27984 13.5607 5.56115C13.2794 5.84245 12.8978 6.00049 12.5 6.00049C12.1022 6.00049 11.7206 5.84245 11.4393 5.56115C11.158 5.27984 11 4.89831 11 4.50049ZM20.75 12.6877C20.75 13.9299 19.7694 14.9667 18.5637 14.9996C18.263 15.0081 17.9637 14.9562 17.6833 14.847C17.403 14.7378 17.1474 14.5735 16.9317 14.3638C16.716 14.1542 16.5445 13.9033 16.4274 13.6262C16.3103 13.3491 16.25 13.0513 16.25 12.7505C16.25 12.5516 16.171 12.3608 16.0303 12.2202C15.8897 12.0795 15.6989 12.0005 15.5 12.0005C15.3011 12.0005 15.1103 12.0795 14.9697 12.2202C14.829 12.3608 14.75 12.5516 14.75 12.7505C14.75 13.3472 14.5129 13.9195 14.091 14.3415C13.669 14.7634 13.0967 15.0005 12.5 15.0005C11.9033 15.0005 11.331 14.7634 10.909 14.3415C10.4871 13.9195 10.25 13.3472 10.25 12.7505C10.25 12.5516 10.171 12.3608 10.0303 12.2202C9.88968 12.0795 9.69891 12.0005 9.5 12.0005C9.30109 12.0005 9.11032 12.0795 8.96967 12.2202C8.82902 12.3608 8.75 12.5516 8.75 12.7505C8.75012 13.0514 8.68988 13.3493 8.57284 13.6265C8.4558 13.9037 8.28434 14.1547 8.06861 14.3644C7.85288 14.5742 7.59726 14.7386 7.31688 14.8479C7.03649 14.9571 6.73705 15.009 6.43625 15.0005C5.23062 14.9667 4.25 13.9299 4.25 12.6877V10.5005C4.25 10.3016 4.32902 10.1108 4.46967 9.97016C4.61032 9.8295 4.80109 9.75049 5 9.75049H20C20.1989 9.75049 20.3897 9.8295 20.5303 9.97016C20.671 10.1108 20.75 10.3016 20.75 10.5005V12.6877Z" fill="currentColor"/>
</svg>
