<svg width="current" height="current" viewBox="0 0 25 24" fill="currentColor" xmlns="http://www.w3.org/2000/svg">
<path d="M23.75 7.5V9.75C23.75 9.94891 23.671 10.1397 23.5303 10.2803C23.3897 10.421 23.1989 10.5 23 10.5C22.8011 10.5 22.6103 10.421 22.4697 10.2803C22.329 10.1397 22.25 9.94891 22.25 9.75V7.5C22.25 7.30109 22.329 7.11032 22.4697 6.96967C22.6103 6.82902 22.8011 6.75 23 6.75C23.1989 6.75 23.3897 6.82902 23.5303 6.96967C23.671 7.11032 23.75 7.30109 23.75 7.5ZM2 6.75C1.80109 6.75 1.61032 6.82902 1.46967 6.96967C1.32902 7.11032 1.25 7.30109 1.25 7.5V9.75C1.25 9.94891 1.32902 10.1397 1.46967 10.2803C1.61032 10.421 1.80109 10.5 2 10.5C2.19891 10.5 2.38968 10.421 2.53033 10.2803C2.67098 10.1397 2.75 9.94891 2.75 9.75V7.5C2.75 7.30109 2.67098 7.11032 2.53033 6.96967C2.38968 6.82902 2.19891 6.75 2 6.75ZM20.75 6V19.5C20.75 19.8978 20.592 20.2794 20.3107 20.5607C20.0294 20.842 19.6478 21 19.25 21H17.75C17.3522 21 16.9706 20.842 16.6893 20.5607C16.408 20.2794 16.25 19.8978 16.25 19.5V18.75H8.75V19.5C8.75 19.8978 8.59196 20.2794 8.31066 20.5607C8.02936 20.842 7.64782 21 7.25 21H5.75C5.35218 21 4.97064 20.842 4.68934 20.5607C4.40804 20.2794 4.25 19.8978 4.25 19.5V6C4.25 5.20435 4.56607 4.44129 5.12868 3.87868C5.69129 3.31607 6.45435 3 7.25 3H17.75C18.5456 3 19.3087 3.31607 19.8713 3.87868C20.4339 4.44129 20.75 5.20435 20.75 6ZM10.25 13.875C10.25 13.6525 10.184 13.435 10.0604 13.25C9.93679 13.065 9.76109 12.9208 9.55552 12.8356C9.34995 12.7505 9.12375 12.7282 8.90552 12.7716C8.68729 12.815 8.48684 12.9222 8.3295 13.0795C8.17217 13.2368 8.06502 13.4373 8.02162 13.6555C7.97821 13.8738 8.00049 14.1 8.08564 14.3055C8.17078 14.5111 8.31498 14.6868 8.49998 14.8104C8.68499 14.934 8.9025 15 9.125 15C9.42337 15 9.70952 14.8815 9.9205 14.6705C10.1315 14.4595 10.25 14.1734 10.25 13.875ZM17 13.875C17 13.6525 16.934 13.435 16.8104 13.25C16.6868 13.065 16.5111 12.9208 16.3055 12.8356C16.1 12.7505 15.8738 12.7282 15.6555 12.7716C15.4373 12.815 15.2368 12.9222 15.0795 13.0795C14.9222 13.2368 14.815 13.4373 14.7716 13.6555C14.7282 13.8738 14.7505 14.1 14.8356 14.3055C14.9208 14.5111 15.065 14.6868 15.25 14.8104C15.435 14.934 15.6525 15 15.875 15C16.1734 15 16.4595 14.8815 16.6705 14.6705C16.8815 14.4595 17 14.1734 17 13.875ZM19.25 6.75H5.75V10.5H19.25V6.75Z" fill="currentColor"/>
</svg>
