<svg width="current" height="current" viewBox="0 0 27 31" fill="" xmlns="http://www.w3.org/2000/svg">
<path d="M9.45342 7.40703C10.1016 6.75885 11.1529 6.75885 11.8011 7.40703L21.5921 17.198C21.6435 17.1113 21.7092 16.9325 21.7093 16.6443C21.7093 16.1917 18.9933 11.2118 21.1058 10.3064C23.2178 9.4022 24.7268 16.0399 25.6321 17.7C26.5375 19.3598 28.4986 22.5284 24.2737 27.2059C20.0489 31.8833 13.8627 29.62 11.7503 27.5076C10.7777 26.535 9.85622 25.5812 9.02959 24.7176C9.02113 24.7095 9.01155 24.7025 9.00322 24.6941L2.81475 18.5057C2.16657 17.8575 2.16657 16.8062 2.81475 16.158C3.46293 15.51 4.51427 15.5099 5.1624 16.158L9.79521 20.7908L10.0237 20.5848L3.1165 13.6775C2.46833 13.0294 2.46833 11.9781 3.1165 11.3299C3.76463 10.6821 4.81508 10.682 5.46318 11.3299L12.4876 18.3543L12.7171 18.1473L5.22881 10.659C4.58074 10.0109 4.58085 8.96048 5.22881 8.3123C5.87698 7.66413 6.92829 7.66413 7.57646 8.3123L15.1819 15.9178L15.4104 15.7107L9.45342 9.75371C8.80546 9.10553 8.80535 8.05514 9.45342 7.40703Z" fill="white"/>
<path d="M14.5298 3.96094C15.0917 3.93956 16.4281 4.15884 17.2783 5.20694C18.1285 6.25504 18.362 7.54268 18.3725 8.05549" stroke="#5e6066" stroke-width="1.59001" stroke-linecap="round"/>
<path d="M18.229 1.72412C18.5766 1.71156 19.4036 1.85042 19.9311 2.50636C20.4585 3.16229 20.6048 3.96699 20.612 4.28736" stroke="#5e6066" stroke-width="1.59001" stroke-linecap="round"/>
<path d="M7.78418 27.5112C7.22714 27.5882 5.87561 27.5024 4.92577 26.5436C3.97592 25.5849 3.61596 24.3267 3.5547 23.8175" stroke="#5e6066" stroke-width="1.59001" stroke-linecap="round"/>
<path d="M4.32568 30.1035C3.98105 30.1504 3.14432 30.0942 2.5545 29.4937C1.96467 28.8933 1.73938 28.107 1.70046 27.789" stroke="#5e6066" stroke-width="1.59001" stroke-linecap="round"/>
</svg>
