<svg width="16" height="16" viewBox="0 0 16 16" fill="none" xmlns="http://www.w3.org/2000/svg">
<g clip-path="url(#clip0_1401_17976)">
<path d="M8.00033 1.33301C8.88438 1.33301 9.73223 1.6842 10.3573 2.30932C10.9825 2.93444 11.3337 3.78229 11.3337 4.66634V6.66634C11.8641 6.66634 12.3728 6.87705 12.7479 7.25213C13.1229 7.6272 13.3337 8.13591 13.3337 8.66634V12.6663C13.3337 13.1968 13.1229 13.7055 12.7479 14.0806C12.3728 14.4556 11.8641 14.6663 11.3337 14.6663H4.66699C4.13656 14.6663 3.62785 14.4556 3.25278 14.0806C2.87771 13.7055 2.66699 13.1968 2.66699 12.6663V8.66634C2.66699 8.13591 2.87771 7.6272 3.25278 7.25213C3.62785 6.87705 4.13656 6.66634 4.66699 6.66634V4.66634C4.66699 3.78229 5.01818 2.93444 5.6433 2.30932C6.26842 1.6842 7.11627 1.33301 8.00033 1.33301ZM8.00033 9.33301C7.66394 9.3329 7.33995 9.45994 7.09329 9.68867C6.84664 9.9174 6.69555 10.2309 6.67033 10.5663L6.66699 10.6663C6.66699 10.93 6.74519 11.1878 6.8917 11.4071C7.03821 11.6264 7.24645 11.7973 7.49008 11.8982C7.73372 11.9991 8.0018 12.0255 8.26045 11.9741C8.51909 11.9226 8.75666 11.7956 8.94313 11.6091C9.1296 11.4227 9.25659 11.1851 9.30804 10.9265C9.35949 10.6678 9.33308 10.3997 9.23216 10.1561C9.13125 9.91246 8.96035 9.70422 8.74109 9.55771C8.52182 9.41121 8.26403 9.33301 8.00033 9.33301ZM8.00033 2.66634C7.46989 2.66634 6.96118 2.87705 6.58611 3.25213C6.21104 3.6272 6.00033 4.13591 6.00033 4.66634V6.66634H10.0003V4.66634C10.0003 4.13591 9.78961 3.6272 9.41454 3.25213C9.03947 2.87705 8.53076 2.66634 8.00033 2.66634Z" fill="#9D9EA3"/>
</g>
<defs>
<clipPath id="clip0_1401_17976">
<rect width="16" height="16" fill="white"/>
</clipPath>
</defs>
</svg>
