<svg width="current" height="current" viewBox="0 0 132 32" fill="currentColor" xmlns="http://www.w3.org/2000/svg">
<rect width="current" height="current" rx="8" fill="currentColor"/>
<path d="M24.75 6L25.6278 8.37221L28 9.25L25.6278 10.1278L24.75 12.5L23.8722 10.1278L21.5 9.25L23.8722 8.37221L24.75 6Z" fill="currentColor"/>
<rect x="5.5" y="14.5" width="current" height="current" fill="currentColor"/>
<path d="M8 24H20C22.2091 24 24 22.2091 24 20V20C24 17.7909 22.2091 16 20 16H16" stroke="currentColor" stroke-width="current"/>
<path d="M9 25.5L9 12.25C9 9.90279 10.9028 8 13.25 8V8C15.5972 8 17.5 9.90279 17.5 12.25L17.5 12.375" stroke="currentColor" stroke-width="current"/>
<path d="M82.998 9.84592C82.998 10.0737 83.1827 10.2583 83.4104 10.2583H84.8015C85.0292 10.2583 85.2139 10.4429 85.2139 10.6707V23.5871C85.2139 23.8149 85.0292 23.9995 84.8015 23.9995H82.0803C81.8526 23.9995 81.668 23.8149 81.668 23.5871V11.9588C81.668 11.731 81.4833 11.5464 81.2556 11.5464H74.5442C74.3165 11.5464 74.1318 11.731 74.1318 11.9588V23.5871C74.1318 23.8149 73.9472 23.9995 73.7195 23.9995H70.9983C70.7706 23.9995 70.5859 23.8149 70.5859 23.5871V10.6707C70.5859 10.4429 70.7706 10.2583 70.9983 10.2583H72.3904C72.6181 10.2583 72.8027 10.0737 72.8027 9.84592V8.41286C72.8027 8.18512 72.9874 8.00049 73.2151 8.00049H82.5857C82.8134 8.00049 82.998 8.18512 82.998 8.41286V9.84592Z" fill="currentColor"/>
<path d="M51.9678 11.1379C51.9678 11.3657 51.7831 11.5503 51.5554 11.5503H43.9583C43.7305 11.5503 43.5459 11.7349 43.5459 11.9627V14.6838C43.5459 14.9116 43.7305 15.0962 43.9583 15.0962H51.5554C51.7831 15.0962 51.9678 15.2808 51.9678 15.5086V18.2297C51.9678 18.4575 51.7831 18.6421 51.5554 18.6421H43.9583C43.7305 18.6421 43.5459 18.8267 43.5459 19.0545V23.5871C43.5459 23.8149 43.3613 23.9995 43.1335 23.9995H40.4124C40.1846 23.9995 40 23.8149 40 23.5871V10.6707C40 10.4429 40.1846 10.2583 40.4124 10.2583H42.2468C42.4746 10.2583 42.6592 10.0737 42.6592 9.84592V8.41579C42.6592 8.18805 42.8438 8.00342 43.0716 8.00342H51.5554C51.7831 8.00342 51.9678 8.18805 51.9678 8.41579V11.1379Z" fill="currentColor"/>
<path d="M99.4463 11.1428C99.4463 11.3705 99.2617 11.5552 99.0339 11.5552H91.388C91.1602 11.5552 90.9756 11.7398 90.9756 11.9676V14.6838C90.9756 14.9116 91.1602 15.0962 91.388 15.0962H99.0339C99.2617 15.0962 99.4463 15.2808 99.4463 15.5086V18.2297C99.4463 18.4575 99.2617 18.6421 99.0339 18.6421H91.388C91.1602 18.6421 90.9756 18.8267 90.9756 19.0545V23.549C90.9756 23.7768 90.791 23.9614 90.5632 23.9614H87.8421C87.6143 23.9614 87.4297 23.7768 87.4297 23.549V10.6326C87.4297 10.4048 87.6143 10.2202 87.8421 10.2202H89.282C89.5097 10.2202 89.6943 10.0356 89.6943 9.80784V8.42165C89.6943 8.1939 89.879 8.00928 90.1067 8.00928H99.0339C99.2617 8.00928 99.4463 8.1939 99.4463 8.42165V11.1428Z" fill="currentColor"/>
<path d="M66.1465 9.84592C66.1465 10.0737 66.3311 10.2583 66.5589 10.2583H67.9499C68.1777 10.2583 68.3623 10.4429 68.3623 10.6707V23.5871C68.3623 23.8149 68.1777 23.9995 67.9499 23.9995H65.2288C65.001 23.9995 64.8164 23.8149 64.8164 23.5871V19.0545C64.8164 18.8267 64.6318 18.6421 64.404 18.6421H58.1428C57.9151 18.6421 57.7305 18.8267 57.7305 19.0545V23.5871C57.7305 23.8149 57.5458 23.9995 57.3181 23.9995H54.5969C54.3692 23.9995 54.1846 23.8149 54.1846 23.5871V10.6707C54.1846 10.4429 54.3692 10.2583 54.5969 10.2583H55.9822C56.2099 10.2583 56.3945 10.0737 56.3945 9.84592V8.41189C56.3945 8.18414 56.5792 7.99951 56.8069 7.99951H65.7341C65.9619 7.99951 66.1465 8.18414 66.1465 8.41189V9.84592ZM57.7305 14.6838C57.7305 14.9116 57.9151 15.0962 58.1428 15.0962H64.404C64.6318 15.0962 64.8164 14.9116 64.8164 14.6838V11.9588C64.8164 11.731 64.6318 11.5464 64.404 11.5464H58.1428C57.9151 11.5464 57.7305 11.731 57.7305 11.9588V14.6838Z" fill="currentColor"/>
<path d="M113.576 9.84544C113.576 10.0732 113.761 10.2578 113.989 10.2578H115.38C115.607 10.2578 115.792 10.4424 115.792 10.6702V23.5876C115.792 23.8154 115.607 24 115.38 24H112.658C112.431 24 112.246 23.8154 112.246 23.5876V19.055C112.246 18.8272 112.061 18.6426 111.834 18.6426H105.573C105.345 18.6426 105.16 18.8272 105.16 19.055V23.5876C105.16 23.8154 104.976 24 104.748 24H102.027C101.799 24 101.614 23.8154 101.614 23.5876V10.6702C101.614 10.4424 101.799 10.2578 102.027 10.2578H103.412C103.64 10.2578 103.824 10.0732 103.824 9.84544V8.41238C103.824 8.18463 104.009 8 104.237 8H113.164C113.392 8 113.576 8.18463 113.576 8.41238V9.84544ZM105.16 14.6833C105.16 14.9111 105.345 15.0957 105.573 15.0957H111.834C112.061 15.0957 112.246 14.9111 112.246 14.6833V11.9583C112.246 11.7305 112.061 11.5459 111.834 11.5459H105.573C105.345 11.5459 105.16 11.7305 105.16 11.9583V14.6833Z" fill="currentColor"/>
<path d="M121.561 20.0095C121.561 20.2372 121.745 20.4219 121.973 20.4219H130.9C131.128 20.4219 131.312 20.6065 131.312 20.8343V23.5554C131.312 23.7831 131.128 23.9678 130.9 23.9678H121.561C121.561 23.9678 121.561 23.968 121.561 23.9683C121.561 23.9685 121.56 23.9688 121.56 23.9688H118.427C118.199 23.9688 118.015 23.7841 118.015 23.5564V8.42312C118.015 8.19537 118.199 8.01074 118.427 8.01074H121.148C121.376 8.01074 121.561 8.19537 121.561 8.42312V20.0095Z" fill="currentColor"/>
</svg>
