<svg width="56" height="56" viewBox="0 0 56 56" fill="none" xmlns="http://www.w3.org/2000/svg">
<g clip-path="url(#clip0_1_6571)">
<circle cx="28" cy="28" r="27" fill="white" stroke="#E5E7EB" stroke-width="2"/>
<path d="M28 10.5C36.0578 10.5 42.842 15.9464 44.876 23.3584C47.8431 23.6321 50.1668 26.1275 50.167 29.166C50.167 32.3877 47.5547 35 44.333 35C44.2364 35 44.1404 34.9968 44.0449 34.9922C41.3461 41.1766 35.1788 45.5 28 45.5C20.3789 45.5 13.8964 40.6281 11.4951 33.8291C8.35272 33.7384 5.83301 31.1643 5.83301 28C5.83313 24.8358 8.35279 22.2616 11.4951 22.1709C13.8964 15.3719 20.3789 10.5 28 10.5Z" fill="#E5E7EB"/>
<path d="M23.208 23.333C24.6192 23.333 25.8149 24.0953 26.3662 25.2021C26.827 25.1273 27.3681 25.083 28.001 25.083C29.066 25.083 29.8699 25.2091 30.4707 25.3965C31.1013 24.5282 32.1788 23.9492 33.373 23.9492C34.047 23.9493 34.9451 24.3624 35.3945 24.9824C35.4507 25.1375 35.6763 25.1375 35.7324 24.9824C36.1257 24.3106 37.0804 23.8975 37.6982 23.8975C39.6079 23.8976 41.1244 25.2926 41.1807 27.0498V27.1533C41.1807 28.0837 40.7873 28.9109 40.1133 29.4795V29.5312C39.9982 29.5853 37.3601 31.7539 36.125 32.7354C35.788 32.9937 35.2823 32.9938 34.9453 32.7354C33.7122 31.7554 31.026 29.5924 30.958 29.5312V29.4795C30.284 28.8593 29.8906 28.032 29.8906 27.1533V27.0498C29.8912 27.0335 29.8927 27.0172 29.8936 27.001C29.38 26.8979 28.7562 26.833 28.001 26.833C27.5037 26.833 27.0633 26.8632 26.6738 26.9111C26.594 27.7095 26.2183 28.413 25.623 28.915V28.9668C25.5061 29.0224 22.8704 31.1907 21.6357 32.1719C21.2988 32.4302 20.7931 32.43 20.4561 32.1719C19.2206 31.1901 16.5253 29.0195 16.4678 28.9668V28.915C15.7937 28.2948 15.4004 27.4675 15.4004 26.5889V26.4863C15.4566 24.7807 17.0292 23.3848 18.8828 23.3848C19.5568 23.3848 20.4559 23.7979 20.9053 24.418C20.9614 24.573 21.186 24.573 21.2422 24.418C21.6355 23.7463 22.5902 23.3331 23.208 23.333Z" fill="#6B7280"/>
<path d="M25.083 33.25C25.2775 33.6389 26.133 34.4167 27.9997 34.4167C29.8663 34.4167 30.7219 33.6389 30.9163 33.25" stroke="#6B7280" stroke-width="1.75" stroke-linecap="round" stroke-linejoin="round"/>
<path d="M25.1916 13.0157C24.5796 13.4953 23.6173 15.4277 24.1475 16.787C24.6776 18.1464 25.5067 18.4832 25.9277 18.5915" stroke="#6B7280" stroke-width="1.39112" stroke-linecap="round"/>
<path d="M28.9101 13.9734C28.2972 14.3913 27.857 16.1886 28.4439 17.4445C28.8807 18.3791 29.9979 18.7419 30.3536 18.8333" stroke="#6B7280" stroke-width="1.39112" stroke-linecap="round"/>
<path d="M32.0023 14.612C31.7088 14.9969 31.9239 16.1063 32.4282 16.8572C32.7263 17.3012 33.6291 17.9496 33.8681 17.9331" stroke="#6B7280" stroke-width="1.38833" stroke-linecap="round"/>
<circle cx="45" cy="45" r="10" fill="#E5E7EB" stroke="white" stroke-width="2"/>
<path d="M45.0118 41.1895C45.1164 40.964 45.3836 40.8668 45.6086 40.9723L47.5454 41.8803C47.7705 41.9858 47.8681 42.2541 47.7635 42.4795L45.0823 48.2603C45.0314 48.3701 44.9385 48.4546 44.8245 48.4947L43.4156 48.9904C43.1852 49.0714 42.932 48.9527 42.8456 48.7231L42.3177 47.3195C42.275 47.2059 42.2796 47.0801 42.3306 46.9703L45.0118 41.1895Z" fill="#9CA3AF"/>
<path d="M43.126 41.3809L48.4896 43.8973" stroke="#E5E7EB" stroke-width="0.5625"/>
</g>
<defs>
<clipPath id="clip0_1_6571">
<rect width="56" height="56" fill="white"/>
</clipPath>
</defs>
</svg>
