<svg width="current" height="current" viewBox="0 0 45 35" fill="currentColor" xmlns="http://www.w3.org/2000/svg">
<path d="M22.167 0C30.2248 0 37.009 5.44641 39.043 12.8584C42.0101 13.1321 44.3338 15.6275 44.334 18.666C44.334 21.8877 41.7217 24.5 38.5 24.5C38.4034 24.5 38.3074 24.4968 38.2119 24.4922C35.5131 30.6766 29.3458 35 22.167 35C14.5459 35 8.06337 30.1281 5.66211 23.3291C2.51971 23.2384 0 20.6643 0 17.5C0.000120984 14.3358 2.51978 11.7616 5.66211 11.6709C8.06337 4.87187 14.5459 0 22.167 0Z" fill="#B8B9BD"/>
<path d="M17.375 12.833C18.7861 12.833 19.9819 13.5953 20.5332 14.7021C20.9939 14.6273 21.5344 14.583 22.167 14.583C23.2323 14.583 24.0368 14.709 24.6377 14.8965C25.2683 14.0283 26.3459 13.4493 27.54 13.4492C28.214 13.4492 29.1131 13.8623 29.5625 14.4824C29.6187 14.6375 29.8432 14.6375 29.8994 14.4824C30.2927 13.8107 31.2475 13.3975 31.8652 13.3975C33.775 13.3975 35.2915 14.7934 35.3477 16.5508V16.6533C35.3477 17.5837 34.9543 18.4109 34.2803 18.9795V19.0312C34.1633 19.0868 31.5276 21.2552 30.293 22.2363C29.9561 22.4947 29.4503 22.4945 29.1133 22.2363C27.8778 21.2545 25.1825 19.084 25.125 19.0312V18.9795C24.451 18.3593 24.0576 17.532 24.0576 16.6533V16.5508C24.0582 16.5343 24.0597 16.5174 24.0605 16.501C23.5469 16.3978 22.9226 16.333 22.167 16.333C21.67 16.333 21.2301 16.3633 20.8408 16.4111C20.761 17.2095 20.3853 17.913 19.79 18.415V18.4668C19.6731 18.5224 17.0374 20.6907 15.8027 21.6719C15.4658 21.9302 14.9601 21.93 14.623 21.6719C13.3876 20.6901 10.6923 18.5195 10.6348 18.4668V18.415C9.96072 17.7948 9.56738 16.9675 9.56738 16.0889V15.9863C9.62355 14.2807 11.1962 12.8848 13.0498 12.8848C13.7238 12.8848 14.6228 13.2979 15.0723 13.918C15.1284 14.073 15.353 14.073 15.4092 13.918C15.8025 13.2463 16.7572 12.8331 17.375 12.833Z" fill="#1A1B1F"/>
<path d="M19.25 22.75C19.4444 23.1389 20.3 23.9167 22.1667 23.9167C24.0333 23.9167 24.8889 23.1389 25.0833 22.75" stroke="#1A1B1F" stroke-width="1.75" stroke-linecap="round" stroke-linejoin="round"/>
<path d="M19.3581 2.51621C18.7461 2.99579 17.7838 4.92816 18.314 6.28752C18.8441 7.64687 19.6732 7.98369 20.0942 8.09195" stroke="#1A1B1F" stroke-width="1.39112" stroke-linecap="round"/>
<path d="M23.0771 3.47439C22.4642 3.89223 22.024 5.6896 22.6109 6.94546C23.0477 7.88007 24.1649 8.24284 24.5206 8.33429" stroke="#1A1B1F" stroke-width="1.39112" stroke-linecap="round"/>
<path d="M26.1688 4.11197C25.8753 4.49689 26.0904 5.60628 26.5947 6.35725C26.8928 6.80122 27.7956 7.44964 28.0346 7.43306" stroke="#1A1B1F" stroke-width="1.38833" stroke-linecap="round"/>
</svg>
