<svg width="24" height="24" viewBox="0 0 24 24" fill="none" xmlns="http://www.w3.org/2000/svg">
<g clip-path="url(#clip0_1027_26721)">
<path d="M4 10.5625C4 11.4243 4.16974 12.2777 4.49954 13.0739C4.82934 13.8701 5.31273 14.5935 5.92211 15.2029C6.5315 15.8123 7.25494 16.2957 8.05114 16.6255C8.84734 16.9553 9.7007 17.125 10.5625 17.125C11.4243 17.125 12.2777 16.9553 13.0739 16.6255C13.8701 16.2957 14.5935 15.8123 15.2029 15.2029C15.8123 14.5935 16.2957 13.8701 16.6255 13.0739C16.9553 12.2777 17.125 11.4243 17.125 10.5625C17.125 9.7007 16.9553 8.84734 16.6255 8.05114C16.2957 7.25494 15.8123 6.5315 15.2029 5.92211C14.5935 5.31273 13.8701 4.82934 13.0739 4.49954C12.2777 4.16974 11.4243 4 10.5625 4C9.7007 4 8.84734 4.16974 8.05114 4.49954C7.25494 4.82934 6.5315 5.31273 5.92211 5.92211C5.31273 6.5315 4.82934 7.25494 4.49954 8.05114C4.16974 8.84734 4 9.7007 4 10.5625Z" stroke="white" stroke-width="2" stroke-linecap="round" stroke-linejoin="round"/>
<path d="M19 19L15.25 15.25" stroke="white" stroke-width="2" stroke-linecap="round" stroke-linejoin="round"/>
</g>
<defs>
<clipPath id="clip0_1027_26721">
<rect width="24" height="24" fill="white"/>
</clipPath>
</defs>
</svg>
