<svg width="91" height="28" viewBox="0 0 91 28" fill="none" xmlns="http://www.w3.org/2000/svg">
<path d="M13.8613 5.1709L11.5635 5.17188L11.5635 9.76563H14.7793L14.7793 7.00879H19.373V12.0615H17.5352L17.5352 15.2764H19.373V19.4121L7.88867 19.4121V15.2773L14.7793 15.2773L14.7793 12.0615L6.96973 12.0615V13.4404L4.67285 13.4404V21.25H6.96973V22.6279L22.5889 22.6279V15.2764H24.4258V12.0615H22.5889L22.5889 5.1709L20.292 5.1709V3.79297L13.8613 3.79297V5.1709ZM4.67285 5.63086H3.29492V7.46777H4.67285V8.8457H6.51074V7.46777L7.88867 7.46777V5.63086L6.51074 5.63086V4.25195H4.67285V5.63086Z" fill="black"/>
<path d="M45.2197 5.04102L42.9795 5.04199V12.0625H38.4688V13.4414H36.2598V21.2812H38.4688V22.6289L54.0879 22.6289V15.2773H55.9258V12.0625H54.0879V5.17188H51.6592V3.92187L45.2197 3.92187V5.04102ZM36.1719 5.63184H34.7939V7.46875L36.1719 7.46875V8.84668L38.0098 8.84668V7.46875H39.3877V5.63184H38.0098V4.25293L36.1719 4.25293V5.63184Z" fill="black"/>
<path d="M76.8613 5.1709L74.5635 5.17188V9.76563H77.7793V7.00879H82.373V12.0615H80.5352V15.2764H82.373V19.4121L70.8887 19.4121V15.2773L77.7793 15.2773V12.0615L69.9697 12.0615V13.4404L67.6729 13.4404V21.25H69.9697V22.6279L85.5889 22.6279V15.2764H87.4258V12.0615H85.5889V5.1709L83.292 5.1709V3.79297L76.8613 3.79297V5.1709ZM67.6729 5.63086H66.2949V7.46777H67.6729V8.8457H69.5107V7.46777L70.8887 7.46777V5.63086L69.5107 5.63086V4.25195H67.6729V5.63086Z" fill="black"/>
</svg>
